<svg width="24" height="24" version="1.1" viewBox="0 0 24 24" xmlns="http://www.w3.org/2000/svg"><path d="m7.4824 0c-4.1276 0-7.4824 3.3548-7.4824 7.4824v9.0352c0 4.1276 3.3548 7.4824 7.4824 7.4824h9.0352c4.1276 0 7.4824-3.3548 7.4824-7.4824v-9.0352c0-4.1276-3.3548-7.4824-7.4824-7.4824zm0 2h9.0352c0.81124 0 1.5771 0.1726 2.2656 0.48223a0.71221 0.71221 82.204 0 1 0.15902 1.1615l-15.298 15.298a0.71221 0.71221 7.7957 0 1-1.1615-0.15902c-0.30963-0.68843-0.48223-1.4543-0.48223-2.2656v-9.0352c0-3.0542 2.4282-5.4824 5.4824-5.4824zm14.035 3.2169c0.30963 0.68843 0.48223 1.4543 0.48223 2.2656v9.0352c0 3.0542-2.4282 5.4824-5.4824 5.4824h-9.0352c-0.81124 0-1.5771-0.1726-2.2656-0.48223a0.71221 0.71221 82.204 0 1-0.15902-1.1615l15.298-15.298a0.71221 0.71221 7.7957 0 1 1.1615 0.15902z"/></svg>
