<?xml version="1.0" encoding="UTF-8" standalone="no"?>
<svg
   height="24"
   viewBox="0 0 960 960"
   width="24"
   version="1.1"
   id="svg1"
   sodipodi:docname="info_outline.svg"
   inkscape:version="1.3 (0e150ed6c4, 2023-07-21)"
   xmlns:inkscape="http://www.inkscape.org/namespaces/inkscape"
   xmlns:sodipodi="http://sodipodi.sourceforge.net/DTD/sodipodi-0.dtd"
   xmlns="http://www.w3.org/2000/svg"
   xmlns:svg="http://www.w3.org/2000/svg">
  <defs
     id="defs1" />
  <sodipodi:namedview
     id="namedview1"
     pagecolor="#505050"
     bordercolor="#ffffff"
     borderopacity="1"
     inkscape:showpageshadow="0"
     inkscape:pageopacity="0"
     inkscape:pagecheckerboard="1"
     inkscape:deskcolor="#505050"
     inkscape:zoom="17.500893"
     inkscape:cx="5.7711341"
     inkscape:cy="24.827305"
     inkscape:window-width="1280"
     inkscape:window-height="1001"
     inkscape:window-x="1912"
     inkscape:window-y="-8"
     inkscape:window-maximized="1"
     inkscape:current-layer="svg1" />
  <path
     d="m 480,680 q 17,0 28.5,-11.5 Q 520,657 520,640 V 480 Q 520,463 508.5,451.5 497,440 480,440 463,440 451.5,451.5 440,463 440,480 v 160 q 0,17 11.5,28.5 Q 463,680 480,680 Z m 0,-320 q 17,0 28.5,-11.5 Q 520,337 520,320 520,303 508.5,291.5 497,280 480,280 463,280 451.5,291.5 440,303 440,320 q 0,17 11.5,28.5 Q 463,360 480,360 Z m 0,520 Q 397,880 324,848.5 251,817 197,763 143,709 111.5,636 80,563 80,480 80,397 111.5,324 143,251 197,197 251,143 324,111.5 397,80 480,80 q 83,0 156,31.5 73,31.5 127,85.5 54,54 85.5,127 31.5,73 31.5,156 0,83 -31.5,156 Q 817,709 763,763 709,817 636,848.5 563,880 480,880 Z m 0,-80 q 134,0 227,-93 93,-93 93,-227 0,-134 -93,-227 -93,-93 -227,-93 -134,0 -227,93 -93,93 -93,227 0,134 93,227 93,93 227,93 z m 0,-320 z"
     id="path1" />
</svg>
