<svg width="24" height="24" fill="#e8eaed" version="1.1" viewBox="0 0 24 24" xmlns="http://www.w3.org/2000/svg"><path d="m3 22v-1.5h2.5v-0.75h-1.5v-1.5h1.5v-0.75h-2.5v-1.5h3q0.425 0 0.7125 0.2875t0.2875 0.7125v1q0 0.425-0.2875 0.7125t-0.7125 0.2875q0.425 0 0.7125 0.2875t0.2875 0.7125v1q0 0.425-0.2875 0.7125t-0.7125 0.2875zm0-7v-2.75q0-0.425 0.2875-0.7125t0.7125-0.2875h1.5v-0.75h-2.5v-1.5h3q0.425 0 0.7125 0.2875t0.2875 0.7125v1.75q0 0.425-0.2875 0.7125t-0.7125 0.2875h-1.5v0.75h2.5v1.5zm1.5-7v-4.5h-1.5v-1.5h3v6zm4.5 11v-2h12v2zm0-6v-2h12v2zm0-6v-2h12v2z" stroke-width=".025"/></svg>
