<svg
   height="36px"
   viewBox="0 0 24 24"
   width="36px"
   fill="#000000"
   xmlns="http://www.w3.org/2000/svg">
  <path
     d="M 11.484375 2.7089844 C 11.366077 2.7129761 11.247266 2.759375 11.150391 2.859375 L 8.3496094 5.6503906 C 8.1496094 5.8503906 8.1496094 6.159375 8.3496094 6.359375 L 11.140625 9.1503906 C 11.460625 9.4603906 12 9.2390625 12 8.7890625 L 12 7 C 14.786541 7.0008976 17.194854 8.9071645 17.835938 11.619141 C 18.477173 14.331755 17.175937 17.117162 14.683594 18.365234 C 12.19125 19.613307 9.1824918 18.987987 7.3945312 16.849609 C 5.6065708 14.711233 5.5236563 11.638189 7.1933594 9.40625 A 1 1 0 0 0 6.9921875 8.0058594 A 1 1 0 0 0 5.5917969 8.2070312 C 3.3730687 11.172867 3.4835046 15.28935 5.859375 18.130859 C 8.2352455 20.972369 12.268213 21.810802 15.580078 20.152344 C 18.891943 18.493885 20.635286 14.764722 19.783203 11.160156 C 18.93127 7.5562271 15.703087 5.0009018 12 5 L 12 3.2109375 C 12 2.9015625 11.744631 2.7002026 11.484375 2.7089844 z " />
</svg>
