<?xml version="1.0" encoding="UTF-8" standalone="no"?>
<svg
  xmlns="http://www.w3.org/2000/svg"
  width="512"
  height="512"
  viewBox="0 0 1600 1600"
  version="1.1"
  id="svg3">
  <path
     id="rect845"
     style="fill:#6002ee;stroke-width:0.319999;paint-order:markers stroke fill;fill-opacity:1"
     d="M 96 0 C 60.543998 0 32 28.544 32 64 L 32 448 C 32 483.456 60.543998 512 96 512 L 416 512 C 451.456 512 480 483.456 480 448 L 480 64 C 480 28.544 451.456 0 416 0 L 96 0 z M 110 95 L 146 95 C 154.864 95 162 102.136 162 111 L 162 147 C 162 155.864 154.864 163 146 163 L 110 163 C 101.136 163 94 155.864 94 147 L 94 111 C 94 102.136 101.136 95 110 95 z M 240 114 L 400.5 114 A 15.999956 15.999956 0 0 1 416.5 130 A 15.999956 15.999956 0 0 1 400.5 146 L 240 146 A 15.999956 15.999956 0 0 1 224 130 A 15.999956 15.999956 0 0 1 240 114 z M 183.98633 201.17578 A 15.999956 15.999956 0 0 1 195.46875 205.89844 A 15.999956 15.999956 0 0 1 195.39453 228.52539 L 139.36914 284.19141 A 16.001556 16.001556 0 0 1 116.92188 284.29688 L 92.945312 260.91992 A 15.999956 15.999956 0 0 1 92.660156 238.29297 A 15.999956 15.999956 0 0 1 115.28516 238.00781 L 127.98633 250.39258 L 172.8418 205.82617 A 15.999956 15.999956 0 0 1 183.98633 201.17578 z M 240 240 L 400.5 240 A 15.999956 15.999956 0 0 1 416.5 256 A 15.999956 15.999956 0 0 1 400.5 272 L 240 272 A 15.999956 15.999956 0 0 1 224 256 A 15.999956 15.999956 0 0 1 240 240 z M 110 352 L 146 352 C 154.864 352 162 359.13599 162 368 L 162 404 C 162 412.86401 154.864 420 146 420 L 110 420 C 101.136 420 94 412.86401 94 404 L 94 368 C 94 359.13599 101.136 352 110 352 z M 400.85938 369.95117 C 408.47904 370.11271 415.53834 376.22958 416.36328 383.91406 C 417.74046 392.56665 410.76274 401.33311 402.01953 401.92773 C 348.27779 402.09682 294.52678 401.95158 240.78125 402 C 232.24484 402.59369 224.20382 395.3319 224.01758 386.76172 C 223.35434 377.95393 231.17022 369.7559 240 370 L 399.32812 370 C 399.8394 369.95655 400.3514 369.9404 400.85938 369.95117 z "
     transform="matrix(3.1250086,0,0,3.1250086,-0.00255,0)" />
  <g
     id="g905"
     style="opacity:1;fill:#ffffff">
    <path
       id="path907"
       style="color:#000000;font-style:normal;font-variant:normal;font-weight:normal;font-stretch:normal;font-size:medium;line-height:normal;font-family:sans-serif;font-variant-ligatures:normal;font-variant-position:normal;font-variant-caps:normal;font-variant-numeric:normal;font-variant-alternates:normal;font-variant-east-asian:normal;font-feature-settings:normal;font-variation-settings:normal;text-indent:0;text-align:start;text-decoration:none;text-decoration-line:none;text-decoration-style:solid;text-decoration-color:#000000;letter-spacing:normal;word-spacing:normal;text-transform:none;writing-mode:lr-tb;direction:ltr;text-orientation:mixed;dominant-baseline:auto;baseline-shift:baseline;text-anchor:start;white-space:normal;shape-padding:0;shape-margin:0;inline-size:0;clip-rule:nonzero;display:inline;overflow:visible;visibility:visible;isolation:auto;mix-blend-mode:normal;color-interpolation:sRGB;color-interpolation-filters:linearRGB;solid-color:#000000;solid-opacity:1;vector-effect:none;fill:#ffffff;fill-opacity:1;fill-rule:nonzero;stroke:none;stroke-width:100;stroke-linecap:round;stroke-linejoin:round;stroke-miterlimit:4;stroke-dasharray:none;stroke-dashoffset:0;stroke-opacity:1;color-rendering:auto;image-rendering:auto;shape-rendering:auto;text-rendering:auto;enable-background:accumulate;stop-color:#000000;stop-opacity:1"
       d="m 749.99943,1206.2532 c 167.18799,0 334.37597,0 501.56397,0" />
  </g>
</svg>
