<?xml version="1.0" encoding="UTF-8" standalone="no"?>
<svg
   xmlns:dc="http://purl.org/dc/elements/1.1/"
   xmlns:cc="http://creativecommons.org/ns#"
   xmlns:rdf="http://www.w3.org/1999/02/22-rdf-syntax-ns#"
   xmlns:svg="http://www.w3.org/2000/svg"
   xmlns="http://www.w3.org/2000/svg"
   xmlns:sodipodi="http://sodipodi.sourceforge.net/DTD/sodipodi-0.dtd"
   xmlns:inkscape="http://www.inkscape.org/namespaces/inkscape"
   width="108"
   height="108"
   viewBox="0 0 28.575001 28.575001"
   version="1.1"
   id="svg8"
   inkscape:version="1.0.1 (3bc2e813f5, 2020-09-07)"
   sodipodi:docname="gk.svg">
  <defs
     id="defs2" />
  <sodipodi:namedview
     id="base"
     pagecolor="#ffffff"
     bordercolor="#666666"
     borderopacity="1.0"
     inkscape:pageopacity="0.0"
     inkscape:pageshadow="2"
     inkscape:zoom="2.8"
     inkscape:cx="26.858507"
     inkscape:cy="68.598214"
     inkscape:document-units="mm"
     inkscape:current-layer="layer1"
     inkscape:document-rotation="0"
     showgrid="false"
     units="px"
     inkscape:window-width="1294"
     inkscape:window-height="1041"
     inkscape:window-x="78"
     inkscape:window-y="0"
     inkscape:window-maximized="0" />
  <metadata
     id="metadata5">
    <rdf:RDF>
      <cc:Work
         rdf:about="">
        <dc:format>image/svg+xml</dc:format>
        <dc:type
           rdf:resource="http://purl.org/dc/dcmitype/StillImage" />
        <dc:title></dc:title>
      </cc:Work>
    </rdf:RDF>
  </metadata>
  <g
     inkscape:label="Ebene 1"
     inkscape:groupmode="layer"
     id="layer1">
    <path
       id="rect833"
       style="fill:#000000;fill-opacity:1;stroke:none;stroke-width:1.00157;stroke-linecap:round;stroke-linejoin:round;paint-order:markers stroke fill"
       d="M 12 0 C 5.3520001 1.1842379e-15 -1.1842379e-15 5.3520001 0 12 L 0 96 C 1.1842379e-15 102.648 5.3520001 108 12 108 L 96 108 C 102.648 108 108 102.648 108 96 L 108 12 C 108 5.3520001 102.648 -1.1842379e-15 96 0 L 12 0 z M 33.96875 32.111328 C 39.728738 32.111328 45.487367 34.416459 48.943359 38.064453 C 50.799357 39.792449 51.568359 41.135424 51.568359 42.607422 C 51.568359 44.719418 49.775604 46.511719 47.599609 46.511719 C 46.255613 46.511719 45.231169 45.999796 43.951172 44.591797 C 41.071179 41.519804 37.935836 40.111328 33.839844 40.111328 C 25.839859 40.111328 20.271484 45.744019 20.271484 54 C 20.271484 62.383986 26.03158 68.144531 34.351562 68.144531 C 39.023554 68.144531 43.056288 66.287884 45.488281 63.087891 L 45.488281 59.439453 L 37.423828 59.439453 C 35.119833 59.439453 33.392578 57.840512 33.392578 55.728516 C 33.392578 53.552521 35.119833 51.951172 37.423828 51.951172 L 49.712891 51.951172 C 52.272886 51.951172 54.128906 53.807193 54.128906 56.367188 L 54.128906 61.808594 C 54.128906 63.72859 53.743203 65.135424 52.783203 66.607422 C 48.943211 72.239413 41.456734 75.888672 33.96875 75.888672 C 21.232775 75.888672 11.376953 66.351976 11.376953 54 C 11.376953 41.648024 21.232775 32.111328 33.96875 32.111328 z M 65.904297 32.111328 C 68.336291 32.111328 70.191406 34.031349 70.191406 36.527344 L 70.191406 71.472656 C 70.191406 73.968652 68.336291 75.888672 65.904297 75.888672 C 63.408301 75.888672 61.552734 73.968652 61.552734 71.472656 L 61.552734 36.527344 C 61.552734 34.031349 63.344302 32.111328 65.904297 32.111328 z M 91.503906 32.111328 C 93.615902 32.111328 95.408203 33.904536 95.408203 36.144531 C 95.408203 37.168529 95.022951 38.063441 94.126953 39.023438 L 81.392578 52.783203 L 95.535156 69.167969 C 96.303141 70.06397 96.623047 70.895014 96.623047 71.791016 C 96.623047 73.967011 94.767792 75.888672 92.591797 75.888672 C 91.311799 75.888672 90.096715 75.247703 89.136719 74.095703 L 73.072266 55.599609 C 72.368268 54.767611 71.919922 53.744702 71.919922 52.720703 C 71.919922 51.760707 72.368719 50.800749 73.136719 49.96875 L 88.367188 33.519531 C 89.327184 32.559533 90.223909 32.111328 91.503906 32.111328 z "
       transform="scale(0.26458333)" />
    <g
       aria-label="GK"
       id="text837"
       style="font-size:16.9333px;line-height:1.25;font-family:'Cera Round Pro';-inkscape-font-specification:'Cera Round Pro';fill:#ffffff;fill-opacity:1;stroke-width:0.264583" />
  </g>
</svg>
