<?xml version="1.0" encoding="UTF-8" standalone="no"?>
<svg
   xmlns:dc="http://purl.org/dc/elements/1.1/"
   xmlns:cc="http://creativecommons.org/ns#"
   xmlns:rdf="http://www.w3.org/1999/02/22-rdf-syntax-ns#"
   xmlns:svg="http://www.w3.org/2000/svg"
   xmlns="http://www.w3.org/2000/svg"
   xmlns:sodipodi="http://sodipodi.sourceforge.net/DTD/sodipodi-0.dtd"
   xmlns:inkscape="http://www.inkscape.org/namespaces/inkscape"
   viewBox="0 0 512 512"
   version="1.1"
   id="svg4"
   sodipodi:docname="icon.svg"
   inkscape:version="1.0.1 (3bc2e813f5, 2020-09-07)">
  <metadata
     id="metadata10">
    <rdf:RDF>
      <cc:Work
         rdf:about="">
        <dc:format>image/svg+xml</dc:format>
        <dc:type
           rdf:resource="http://purl.org/dc/dcmitype/StillImage" />
        <dc:title></dc:title>
      </cc:Work>
    </rdf:RDF>
  </metadata>
  <defs
     id="defs8" />
  <sodipodi:namedview
     pagecolor="#ffffff"
     bordercolor="#666666"
     borderopacity="1"
     objecttolerance="10"
     gridtolerance="10"
     guidetolerance="10"
     inkscape:pageopacity="0"
     inkscape:pageshadow="2"
     inkscape:window-width="1920"
     inkscape:window-height="1057"
     id="namedview6"
     showgrid="false"
     inkscape:zoom="0.86914063"
     inkscape:cx="155.08107"
     inkscape:cy="137.58028"
     inkscape:window-x="-8"
     inkscape:window-y="-8"
     inkscape:window-maximized="1"
     inkscape:current-layer="svg4">
    <inkscape:grid
       type="xygrid"
       id="grid865" />
  </sodipodi:namedview>
  <!--! Font Awesome Pro 6.1.1 by @fontawesome - https://fontawesome.com License - https://fontawesome.com/license (Commercial License) Copyright 2022 Fonticons, Inc. -->
  <path
     id="path2"
     d="M 64 32 C 28.65 32 0 60.65 0 96 L 0 416 C 0 451.3 28.65 480 64 480 L 448 480 C 483.3 480 512 451.3 512 416 L 512 96 C 512 60.65 483.3 32 448 32 L 64 32 z M 64 96 L 152 96 L 152 160 L 64 160 L 64 96 z M 280.66797 96.011719 C 283.37186 96.127681 286.05773 97.147461 288.23438 99.097656 C 293.15931 103.55524 293.56248 111.1777 289.08984 116.13281 L 252.92578 156.35742 C 250.70956 158.76965 247.58408 160.22679 244.27734 159.875 C 240.97061 160.4278 237.77545 159.12143 235.43359 156.35742 L 215.33008 136.25586 C 210.62023 131.98421 210.62023 124.34559 215.33008 119.63672 C 220.03941 114.92786 227.67788 114.92786 232.38672 119.63672 L 243.49805 130.72852 L 271.19922 99.992188 C 273.68681 97.207762 277.19154 95.862624 280.66797 96.011719 z M 432.66797 96.011719 C 435.37186 96.12768 438.05773 97.14746 440.23438 99.097656 C 445.15931 103.55524 445.56248 111.1777 441.08984 116.13281 L 404.92578 156.35742 C 402.70956 158.76965 399.58408 160.22679 396.27734 159.875 C 392.97061 160.4278 389.77545 159.12143 387.43359 156.35742 L 367.33008 136.25586 C 362.62023 131.98421 362.62023 124.34559 367.33008 119.63672 C 372.03941 114.92786 379.67788 114.92786 384.38672 119.63672 L 395.49805 130.72852 L 423.19922 99.992188 C 425.68681 97.207763 429.19154 95.862625 432.66797 96.011719 z M 208 224 L 296 224 L 296 288 L 208 288 L 208 224 z M 360 224 L 448 224 L 448 288 L 360 288 L 360 224 z M 136.66797 224.01172 C 139.37186 224.12768 142.05773 225.14746 144.23438 227.09766 C 149.15931 231.55525 149.56248 239.1777 145.08984 244.13281 L 108.92578 284.35742 C 106.70956 286.76965 103.58408 288.22679 100.27734 287.875 C 96.970616 288.4278 93.775452 287.12143 91.433594 284.35742 L 71.330078 264.25586 C 66.620231 259.98421 66.620231 252.34559 71.330078 247.63672 C 76.039414 242.92786 83.677882 242.92786 88.386719 247.63672 L 99.498047 258.72852 L 127.19922 227.99219 C 129.68681 225.20776 133.19154 223.86263 136.66797 224.01172 z M 64 352 L 152 352 L 152 416 L 64 416 L 64 352 z M 360 352 L 448 352 L 448 416 L 360 416 L 360 352 z M 280.66797 352.01172 C 283.37186 352.12768 286.05773 353.14746 288.23438 355.09766 C 293.15931 359.55525 293.56248 367.1777 289.08984 372.13281 L 252.92578 412.35742 C 250.70956 414.76965 247.58408 416.22679 244.27734 415.875 C 240.97061 416.4278 237.77545 415.12143 235.43359 412.35742 L 215.33008 392.25586 C 210.62023 387.98421 210.62023 380.34559 215.33008 375.63672 C 220.03941 370.92786 227.67788 370.92786 232.38672 375.63672 L 243.49805 386.72852 L 271.19922 355.99219 C 273.68681 353.20776 277.19154 351.86262 280.66797 352.01172 z " />
</svg>
